<?xml version="1.0" encoding="UTF-8"?>
<!DOCTYPE svg PUBLIC "-//W3C//DTD SVG 1.1//EN" "http://www.w3.org/Graphics/SVG/1.1/DTD/svg11.dtd">
<!-- Creator: CorelDRAW -->
<svg xmlns="http://www.w3.org/2000/svg" xml:space="preserve" width="609.6mm" height="457.2mm" version="1.1" style="shape-rendering:geometricPrecision; text-rendering:geometricPrecision; image-rendering:optimizeQuality; fill-rule:evenodd; clip-rule:evenodd"
viewBox="0 0 60960 45720"
 xmlns:xlink="http://www.w3.org/1999/xlink"
 xmlns:xodm="http://www.corel.com/coreldraw/odm/2003">
 <defs>
  <style type="text/css">
   <![CDATA[
    .str0 {stroke:#5D100A;stroke-width:7.62;stroke-miterlimit:2.61313}
    .fil6 {fill:none;fill-rule:nonzero}
    .fil1 {fill:#A26165}
    .fil4 {fill:#FCDDDC}
    .fil3 {fill:#E2B6B9}
    .fil2 {fill:#C38B90}
    .fil0 {fill:#692626}
    .fil5 {fill:#5D100A;fill-rule:nonzero}
   ]]>
  </style>
 </defs>
 <g id="Layer_x0020_1">
  <metadata id="CorelCorpID_0Corel-Layer"/>
  <g id="_1426572617552">
   <path class="fil0" d="M23363.11 15051.5l2703.14 0 484.4 1065.22 -2695.89 0 -491.65 -1065.22zm11710.35 0l2706.31 0 -491.65 1065.22 -2698.74 0 484.08 -1065.22z"/>
   <path class="fil1" d="M24345.69 17180.42l2688.68 0 484.4 1065.21 -2681.45 0 -491.63 -1065.21zm9760.32 0l2691.18 0 -491.63 1065.21 -2683.63 0 484.08 -1065.21z"/>
   <polygon class="fil2" points="28279.35,25703.39 32863.5,25703.39 32371.87,26768.6 28770.98,26768.6 "/>
   <polygon class="fil3" points="29262.77,27834.14 31880.08,27834.14 31388.46,28899.35 29754.42,28899.35 "/>
   <polygon class="fil4" points="30246.18,29964.88 30896.67,29964.88 30571.43,30669.55 "/>
   <path class="fil5" d="M21628.07 23143.01l-884.14 -2212.1c-61.89,-168.11 50.64,-263.06 158.96,-263.06l37.28 0 0 -42.2 -950.25 0 0 42.9 33.76 0c130.83,0 286.98,76.67 372.08,264.47l1186.59 2706.57 37.98 0c0,-92.84 156.15,-434.68 156.15,-434.68l1173.93 -2565.9c197.65,-432.57 467.74,-974.17 1168.3,-1002.31l0 -42.2c-865.15,-33.06 -1233.01,542.3 -1442.62,1044.51l-1048.02 2504z"/>
   <path id="_1" class="fil5" d="M23641.21 20853.58l0.65 38.95 49.34 0c136.35,0 246.72,109.08 249.32,244.78l0 2161.42c-3.25,134.4 -113.62,242.82 -249.32,242.82l-49.34 0 -0.65 38.96 851.19 0 -0.65 -38.96 -49.34 0c-136.35,0 -246.73,-109.07 -249.32,-244.77l0 -2321.79c50.64,1.95 286.32,-7.79 485,3.25 289.58,15.58 473.32,241.52 483.06,593.43 2.6,85.7 -7.79,178.55 -24.67,233.09 -110.38,351.25 -405.8,399.3 -608.37,404.49 -116.87,3.25 -205.82,1.3 -205.82,1.3l0 36.36c142.84,0 256.46,135.05 357.75,262.95 30.51,37.66 469.42,675.89 513.57,729.13 122.06,146.09 316.85,341.52 679.79,341.52l213.61 0 0 -38.96c-229.2,-1.94 -373.33,-123.36 -529.81,-294.76 -150.63,-164.92 -486.95,-644.08 -486.95,-644.08 -75.31,-106.48 -194.78,-235.69 -278.54,-273.99 374.63,0 661.61,-366.19 661.61,-742.77 0,-454.49 -288.93,-732.37 -761.59,-732.37l-1050.52 0z"/>
   <path id="_2" class="fil5" d="M26592.51 20853.58l0.65 38.95 48.69 0c135.7,-0.65 246.07,107.13 249.97,241.53l0 2164.67c-3.9,135.04 -113.62,242.82 -249.32,242.82l-49.34 0 -0.65 38.96 949.23 0c580.45,0 907.68,-292.17 907.68,-732.38 0.65,-385.66 -252.57,-689.52 -667.45,-751.2 220.1,-62.98 430.46,-261.66 431.76,-592.14 -1.3,-390.21 -301.26,-651.21 -847.94,-651.21l-773.28 0zm553.17 2584.74l0 -2460.08 206.47 0c369.44,0 568.11,202.57 569.41,554.47 -1.3,501.24 -406.44,571.36 -644.07,570.06l0.64 37.01c377.23,-0.65 879.77,96.74 879.12,680.43 0.65,394.11 -229.2,620.06 -629.15,618.11l-382.42 0z"/>
   <path id="_3" class="fil5" d="M30274.89 20799.04l-35.06 0c0,85.7 -144.14,401.25 -144.14,401.25l-883.01 2095.84c-79.21,173.35 -223.35,245.42 -341.52,245.42l-35.06 0 0 38.96 784.32 0 0 -38.96 -34.41 0c-99.99,0 -203.87,-87.65 -148.68,-242.17l261 -665.51 1049.22 0 248.68 662.91c57.13,156.47 -47.4,244.77 -148.04,244.77l-33.76 0 0 38.96 877.16 0 0 -38.96 -32.46 0c-119.47,0 -263.6,-72.07 -342.81,-245.42l-1041.43 -2497.09zm-531.11 1717.97l490.2 -1250.5 469.42 1250.5 -959.62 0z"/>
   <path id="_4" class="fil5" d="M34182.57 20853.58l0.64 38.95 72.07 0c131.16,0 238.29,105.18 240.23,236.34l0 1931.57 -2121.16 -2265.3 -38.31 0c0,0 35.71,220.75 35.71,486.95l0 2023.78c-2.6,130.5 -109.08,235.68 -240.23,235.68l-72.07 0 -0.65 38.96 802.5 0 -0.65 -38.96 -72.07 0c-130.5,0 -236.33,-103.23 -240.23,-233.08l0 -1939.37 2124.41 2265.95 35.71 0c0,0 -35.71,-246.07 -35.71,-496.69l0 -2012.74c3.9,-129.85 109.73,-233.09 240.23,-233.09l72.07 0 0.65 -38.95 -803.14 0z"/>
   <path id="_5" class="fil5" d="M37537.72 20853.58l0 38.95 63.63 0c110.37,0 200.62,78.56 205.82,187.64l0 1536.82c-1.3,536.95 -348.01,895.35 -868.08,895.35 -496.69,0 -827.17,-378.53 -827.17,-945.99l0 -1486.83c4.55,-109.08 94.8,-186.99 205.17,-186.99l63.63 0 0 -38.95 -791.46 0 0 38.95 63.63 0c112.32,0 203.87,81.16 205.82,192.84l0 1538.12c0,607.06 432.41,1011.56 1080.38,1011.56 629.8,0 1049.87,-407.09 1049.87,-1018.06l0 -1540.71c7.14,-107.13 96.09,-183.75 205.82,-183.75l63.63 0 0 -38.95 -720.69 0z"/>
   <path id="_6" class="fil5" d="M39457.34 21722.95c-127.26,-101.94 -170.11,-230.49 -170.11,-351.26 0,-257.11 190.88,-455.78 471.37,-455.78 237.63,0 447.99,140.24 452.54,400.6l37.66 0 -8.44 -477.87 -153.88 0c-110.38,-23.37 -242.18,-39.6 -339.57,-39.6 -440.2,0 -677.84,331.13 -677.84,650.57 0,140.24 46.75,346.71 228.55,490.19l703.16 552.53c614.85,488.25 330.47,1314.13 -398.01,1314.13 -673.94,0 -958.32,-701.22 -529.8,-1260.24l-35.06 -27.27c-533.7,570.71 -225.95,1427.75 632.39,1427.75 949.23,0 1288.15,-1040.13 509.67,-1655.64l-722.63 -568.11z"/>
   <path id="_7" class="fil6 str0" d="M21628.07 23143.01l-884.14 -2212.1c-61.89,-168.11 50.64,-263.06 158.96,-263.06l37.28 0 0 -42.2 -950.25 0 0 42.9 33.76 0c130.83,0 286.98,76.67 372.08,264.47l1186.59 2706.57 37.98 0c0,-92.84 156.15,-434.68 156.15,-434.68l1173.93 -2565.9c197.65,-432.57 467.74,-974.17 1168.3,-1002.31l0 -42.2c-865.15,-33.06 -1233.01,542.3 -1442.62,1044.51l-1048.02 2504z"/>
   <path id="_8" class="fil6 str0" d="M23641.21 20853.58l0.65 38.95 49.34 0c136.35,0 246.72,109.08 249.32,244.78l0 2161.42c-3.25,134.4 -113.62,242.82 -249.32,242.82l-49.34 0 -0.65 38.96 851.19 0 -0.65 -38.96 -49.34 0c-136.35,0 -246.73,-109.07 -249.32,-244.77l0 -2321.79c50.64,1.95 286.32,-7.79 485,3.25 289.58,15.58 473.32,241.52 483.06,593.43 2.6,85.7 -7.79,178.55 -24.67,233.09 -110.38,351.25 -405.8,399.3 -608.37,404.49 -116.87,3.25 -205.82,1.3 -205.82,1.3l0 36.36c142.84,0 256.46,135.05 357.75,262.95 30.51,37.66 469.42,675.89 513.57,729.13 122.06,146.09 316.85,341.52 679.79,341.52l213.61 0 0 -38.96c-229.2,-1.94 -373.33,-123.36 -529.81,-294.76 -150.63,-164.92 -486.95,-644.08 -486.95,-644.08 -75.31,-106.48 -194.78,-235.69 -278.54,-273.99 374.63,0 661.61,-366.19 661.61,-742.77 0,-454.49 -288.93,-732.37 -761.59,-732.37l-1050.52 0z"/>
   <path id="_9" class="fil6 str0" d="M26592.51 20853.58l0.65 38.95 48.69 0c135.7,-0.65 246.07,107.13 249.97,241.53l0 2164.67c-3.9,135.04 -113.62,242.82 -249.32,242.82l-49.34 0 -0.65 38.96 949.23 0c580.45,0 907.68,-292.17 907.68,-732.38 0.65,-385.66 -252.57,-689.52 -667.45,-751.2 220.1,-62.98 430.46,-261.66 431.76,-592.14 -1.3,-390.21 -301.26,-651.21 -847.94,-651.21l-773.28 0zm553.17 2584.74l0 -2460.08 206.47 0c369.44,0 568.11,202.57 569.41,554.47 -1.3,501.24 -406.44,571.36 -644.07,570.06l0.64 37.01c377.23,-0.65 879.77,96.74 879.12,680.43 0.65,394.11 -229.2,620.06 -629.15,618.11l-382.42 0z"/>
   <path id="_10" class="fil6 str0" d="M30274.89 20799.04l-35.06 0c0,85.7 -144.14,401.25 -144.14,401.25l-883.01 2095.84c-79.21,173.35 -223.35,245.42 -341.52,245.42l-35.06 0 0 38.96 784.32 0 0 -38.96 -34.41 0c-99.99,0 -203.87,-87.65 -148.68,-242.17l261 -665.51 1049.22 0 248.68 662.91c57.13,156.47 -47.4,244.77 -148.04,244.77l-33.76 0 0 38.96 877.16 0 0 -38.96 -32.46 0c-119.47,0 -263.6,-72.07 -342.81,-245.42l-1041.43 -2497.09zm-531.11 1717.97l490.2 -1250.5 469.42 1250.5 -959.62 0z"/>
   <path id="_11" class="fil6 str0" d="M34182.57 20853.58l0.64 38.95 72.07 0c131.16,0 238.29,105.18 240.23,236.34l0 1931.57 -2121.16 -2265.3 -38.31 0c0,0 35.71,220.75 35.71,486.95l0 2023.78c-2.6,130.5 -109.08,235.68 -240.23,235.68l-72.07 0 -0.65 38.96 802.5 0 -0.65 -38.96 -72.07 0c-130.5,0 -236.33,-103.23 -240.23,-233.08l0 -1939.37 2124.41 2265.95 35.71 0c0,0 -35.71,-246.07 -35.71,-496.69l0 -2012.74c3.9,-129.85 109.73,-233.09 240.23,-233.09l72.07 0 0.65 -38.95 -803.14 0z"/>
   <path id="_12" class="fil6 str0" d="M37537.72 20853.58l0 38.95 63.63 0c110.37,0 200.62,78.56 205.82,187.64l0 1536.82c-1.3,536.95 -348.01,895.35 -868.08,895.35 -496.69,0 -827.17,-378.53 -827.17,-945.99l0 -1486.83c4.55,-109.08 94.8,-186.99 205.17,-186.99l63.63 0 0 -38.95 -791.46 0 0 38.95 63.63 0c112.32,0 203.87,81.16 205.82,192.84l0 1538.12c0,607.06 432.41,1011.56 1080.38,1011.56 629.8,0 1049.87,-407.09 1049.87,-1018.06l0 -1540.71c7.14,-107.13 96.09,-183.75 205.82,-183.75l63.63 0 0 -38.95 -720.69 0z"/>
   <path id="_13" class="fil6 str0" d="M39457.34 21722.95c-127.26,-101.94 -170.11,-230.49 -170.11,-351.26 0,-257.11 190.88,-455.78 471.37,-455.78 237.63,0 447.99,140.24 452.54,400.6l37.66 0 -8.44 -477.87 -153.88 0c-110.38,-23.37 -242.18,-39.6 -339.57,-39.6 -440.2,0 -677.84,331.13 -677.84,650.57 0,140.24 46.75,346.71 228.55,490.19l703.16 552.53c614.85,488.25 330.47,1314.13 -398.01,1314.13 -673.94,0 -958.32,-701.22 -529.8,-1260.24l-35.06 -27.27c-533.7,570.71 -225.95,1427.75 632.39,1427.75 949.23,0 1288.15,-1040.13 509.67,-1655.64l-722.63 -568.11z"/>
   <polygon class="fil1" points="33621.94,18245.65 36305.59,18245.65 36797.18,17180.4 34106.03,17180.4 "/>
  </g>
 </g>
</svg>
